HIERARCHY
ROOT Hips
{
  OFFSET -8.30562 98.0414 -44.1494
  CHANNELS 6 Xposition Yposition Zposition Zrotation Xrotation Yrotation
  JOINT ToSpine
  {
    OFFSET -2.69724 7.43032 -0.144315
    CHANNELS 3 Zrotation Xrotation Yrotation
    JOINT Spine
    {
      OFFSET -0.0310711 10.7595 1.96963
      CHANNELS 3 Zrotation Xrotation Yrotation
      JOINT Spine1
      {
        OFFSET 13.1342 3.43533 0.764692
        CHANNELS 3 Zrotation Xrotation Yrotation
        JOINT Neck
        {
          OFFSET 29.8703 7.82586 -0.130764
          CHANNELS 3 Zrotation Xrotation Yrotation
          JOINT Head
          {
            OFFSET 9.52751 0.295786 -0.907742
            CHANNELS 3 Zrotation Xrotation Yrotation
            End Site
            {
              OFFSET 16.4037 0.713936 2.7358
            }
          }
        }
        JOINT LeftShoulder
        {
          OFFSET 27.5574 4.95586 2.47156
          CHANNELS 3 Zrotation Xrotation Yrotation
          JOINT LeftArm
          {
            OFFSET 1.20734 -0.998971 20.1238
            CHANNELS 3 Zrotation Xrotation Yrotation
            JOINT LeftForeArm
            {
              OFFSET 26.8049 -0.0536703 -0.155908
              CHANNELS 3 Zrotation Xrotation Yrotation
              JOINT LeftHand
              {
                OFFSET 26.6817 0 0.320147
                CHANNELS 3 Zrotation Xrotation Yrotation
                End Site
                {
                  OFFSET 18.6119 0 0.382219
                }
              }
            }
          }
        }
        JOINT RightShoulder
        {
          OFFSET 27.5927 4.71444 -2.65209
          CHANNELS 3 Zrotation Xrotation Yrotation
          JOINT RightArm
          {
            OFFSET 2.83739 -1.17114 -18.7564
            CHANNELS 3 Zrotation Xrotation Yrotation
            JOINT RightForeArm
            {
              OFFSET 28.839 -0.0548439 1.22491
              CHANNELS 3 Zrotation Xrotation Yrotation
              JOINT RightHand
              {
                OFFSET 26.5114 0 -0.101894
                CHANNELS 3 Zrotation Xrotation Yrotation
                End Site
                {
                  OFFSET 18.2168 0 0
                }
              }
            }
          }
        }
      }
    }
  }
  JOINT LeftUpLeg
  {
    OFFSET -4.76168 -1.9167 -10.2353
    CHANNELS 3 Zrotation Xrotation Yrotation
    JOINT LeftLeg
    {
      OFFSET 2.55951 -42.0585 -8.02213
      CHANNELS 3 Zrotation Xrotation Yrotation
      JOINT LeftFoot
      {
        OFFSET 3.16357 -42.5282 -3.95426
        CHANNELS 3 Zrotation Xrotation Yrotation
        JOINT LeftToeBase
        {
          OFFSET 0.346054 -6.02161 12.8035
          CHANNELS 3 Zrotation Xrotation Yrotation
          End Site
          {
            OFFSET 0.134235 -1.35082 5.13018
          }
        }
      }
    }
  }
  JOINT RightUpLeg
  {
    OFFSET -4.94151 -1.41743 10.6446
    CHANNELS 3 Zrotation Xrotation Yrotation
    JOINT RightLeg
    {
      OFFSET -2.56294 -42.0364 -7.94377
      CHANNELS 3 Zrotation Xrotation Yrotation
      JOINT RightFoot
      {
        OFFSET -3.0952 -42.555 -4.02241
        CHANNELS 3 Zrotation Xrotation Yrotation
        JOINT RightToeBase
        {
          OFFSET -0.0828122 -6.13587 12.8035
          CHANNELS 3 Zrotation Xrotation Yrotation
          End Site
          {
            OFFSET -0.131328 -1.35082 5.13018
          }
        }
      }
    }
  }
}
MOTION
Frames:	10
Frame Time:	0.00833333
-8.30562 98.0414 -44.1494 -6.44471 -69.5788 -97.5854 -70.1915 0 88.8779 65.5382 69.4472 22.9592 4.48107 20.4955 1.43409 -162.123 19.4948 176.15 -161.797 58.8296 -178.258 -0.508511 -16.2675 -36.3048 -67.2726 42.3687 -89.7953 8.68586 17.9833 -28.0774 0.420957 0.000575461 0.35866 -1.95336 6.37934 45.0604 -68.143 -33.4514 94.4266 4.64156 -16.5081 24.6051 0.58676 0.00033122 0.0646654 -53.2838 1.39065 98.8784 -0.779216 20.6891 -10.557 3.41461 -6.52888 -0.848861 0.386553 0.195652 -2.49393 -54.9851 -1.67654 81.1528 1.64674 16.2535 -0.329803 -17.0968 -2.95032 2.15804 0.583673 -10.8503 10.5404 
-8.30472 98.0453 -44.1402 -6.45398 -69.582 -97.6058 -70.1915 0 88.8779 65.5263 69.4471 22.9081 4.45073 20.4705 1.52195 -162.149 19.4802 176.231 -161.844 58.8218 -178.232 -0.494267 -16.2189 -36.276 -67.4432 42.4784 -89.6897 8.85968 18.2022 -28.161 0.420957 0.000575461 0.35866 -1.95296 6.39266 44.9907 -68.2668 -33.4806 94.3882 4.68195 -16.9398 24.5417 0.58676 0.000331219 0.0646654 -53.2994 1.39024 98.8941 -0.797786 20.7002 -10.7291 3.34874 -6.54229 -0.844809 0.307547 0.206519 -2.10988 -54.9988 -1.67818 81.1491 1.62825 16.2516 -0.226196 -16.8226 -2.98629 2.12718 0.55818 -10.676 10.4414 
-8.30393 98.0483 -44.1308 -6.47634 -69.5856 -97.6341 -70.1915 0 88.8779 65.5213 69.4482 22.8621 4.42395 20.4489 1.60234 -162.173 19.4668 176.301 -161.871 58.8123 -178.23 -0.47901 -16.1668 -36.244 -67.6077 42.5792 -89.5847 9.01499 18.3868 -28.2402 0.420957 0.000575461 0.35866 -1.95247 6.40687 44.9158 -68.3683 -33.5018 94.3564 4.72621 -17.3385 24.4899 0.58676 0.000331218 0.0646654 -53.3197 1.39544 98.909 -0.815171 20.702 -10.8739 3.29107 -6.55363 -0.841239 0.239758 0.21952 -1.78931 -55.005 -1.67493 81.1437 1.60845 16.2711 -0.0597174 -16.463 -3.02596 2.08741 0.524441 -10.4439 10.2176 
-8.30292 98.0532 -44.1217 -6.53146 -69.5898 -97.6823 -70.1915 0 88.8779 65.5335 69.4526 22.829 4.40595 20.4359 1.66413 -162.19 19.4563 176.34 -161.846 58.7988 -178.291 -0.465933 -16.1215 -36.2185 -67.7561 42.6581 -89.4826 9.12276 18.4865 -28.3074 0.420957 0.000575461 0.35866 -1.95209 6.4193 44.8514 -68.4142 -33.5034 94.3412 4.78205 -17.6535 24.4651 0.58676 0.000331218 0.0646654 -53.3519 1.41469 98.9218 -0.829846 20.6811 -10.9501 3.25385 -6.5598 -0.838877 0.200256 0.237863 -1.62745 -54.9927 -1.65942 81.134 1.5848 16.3435 0.264097 -15.8895 -3.07491 2.02535 0.473471 -10.0657 9.6826 
-8.30139 98.0629 -44.1134 -6.6529 -69.5969 -97.777 -70.1915 0 88.8779 65.582 69.4656 22.8052 4.39746 20.4373 1.70077 -162.196 19.4485 176.333 -161.737 58.7767 -178.453 -0.458175 -16.0933 -36.2094 -67.8994 42.7104 -89.369 9.17164 18.4717 -28.3639 0.420957 0.000575461 0.35866 -1.95203 6.42728 44.8129 -68.3542 -33.4644 94.36 4.86018 -17.8409 24.4834 0.58676 0.000331217 0.0646654 -53.408 1.45821 98.9332 -0.841758 20.6225 -10.917 3.24468 -6.56199 -0.838327 0.203903 0.267354 -1.71331 -54.9529 -1.6241 81.1163 1.55204 16.502 0.862052 -14.9474 -3.13852 1.92446 0.410376 -9.43956 8.62678 
-8.29908 98.0815 -44.1057 -6.82082 -69.606 -97.9041 -70.1915 0 88.8779 65.6558 69.4844 22.7885 4.39587 20.4489 1.71941 -162.194 19.4429 176.294 -161.57 58.7483 -178.685 -0.458459 -16.0908 -36.2259 -68.0382 42.7433 -89.248 9.17779 18.3752 -28.4125 0.420957 0.00057546 0.35866 -1.95247 6.42712 44.8203 -68.2199 -33.3971 94.4023 4.95424 -17.9374 24.5318 0.58676 0.000331217 0.0646654 -53.4808 1.51898 98.9432 -0.851333 20.5371 -10.8064 3.25557 -6.56119 -0.839066 0.238535 0.304621 -1.9749 -54.8935 -1.57459 81.0933 1.50826 16.7192 1.65459 -13.7456 -3.21251 1.79617 0.367684 -8.63001 7.20882 
-8.29623 98.1063 -44.0984 -6.97464 -69.6126 -98.0144 -70.1915 0 88.8779 65.7204 69.4993 22.7882 4.40136 20.4608 1.72947 -162.193 19.4401 176.247 -161.397 58.7214 -178.926 -0.464467 -16.1066 -36.2606 -68.1466 42.7623 -89.15 9.15345 18.239 -28.4472 0.420957 0.000575459 0.35866 -1.95327 6.42126 44.8601 -68.1008 -33.3392 94.4371 5.04643 -18.0136 24.5825 0.58676 0.000331217 0.0646654 -53.5486 1.57948 98.9499 -0.858022 20.4507 -10.6867 3.27544 -6.55394 -0.840127 0.280466 0.339113 -2.26594 -54.8287 -1.52342 81.0717 1.45855 16.9375 2.44092 -12.5511 -3.28798 1.66915 0.362586 -7.80421 5.79119 
-8.2932 98.1304 -44.0921 -7.05361 -69.6126 -98.0585 -70.1915 0 88.8779 65.7411 69.5005 22.814 4.41411 20.4628 1.74034 -162.203 19.4411 176.217 -161.269 58.7043 -179.111 -0.471767 -16.1267 -36.298 -68.1988 42.773 -89.1054 9.11104 18.1053 -28.4622 0.420957 0.000575459 0.35866 -1.95416 6.41611 44.8976 -68.0864 -33.3284 94.4338 5.11888 -18.1403 24.6076 0.58676 0.000331217 0.0646654 -53.5894 1.62205 98.9515 -0.861891 20.3894 -10.6257 3.29322 -6.53682 -0.840547 0.305482 0.360311 -2.44014 -54.7728 -1.48336 81.0583 1.41407 17.1023 3.01848 -11.6306 -3.35602 1.57204 0.375929 -7.13878 4.7298 
-8.29039 98.1466 -44.0873 -7.01652 -69.6016 -97.9963 -70.1915 0 88.8779 65.6939 69.4787 22.8844 4.43941 20.4485 1.75272 -162.233 19.4475 176.212 -161.197 58.7007 -179.232 -0.475872 -16.1371 -36.3228 -68.1686 42.77 -89.1396 9.03326 17.9585 -28.4461 0.420957 0.000575458 0.35866 -1.95486 6.41814 44.8984 -68.2555 -33.3941 94.3624 5.16448 -18.3701 24.5905 0.58676 0.000331216 0.0646654 -53.5887 1.64094 98.9463 -0.862758 20.3649 -10.6573 3.3124 -6.50011 -0.840094 0.305014 0.360008 -2.43715 -54.726 -1.45786 81.0553 1.3836 17.1983 3.31256 -11.0697 -3.41698 1.51454 0.373752 -6.68124 4.12836 
-8.28746 98.1513 -44.085 -6.90425 -69.5828 -97.8633 -70.1915 0 88.8779 65.6026 69.4412 22.9887 4.47542 20.4245 1.76219 -162.275 19.4584 176.217 -161.156 58.7057 -179.321 -0.475227 -16.133 -36.33 -68.0764 42.7525 -89.2307 8.92065 17.7851 -28.4054 0.420957 0.000575458 0.35866 -1.95524 6.43215 44.8376 -68.5424 -33.5093 94.2456 5.19309 -18.6545 24.5494 0.58676 0.000331216 0.0646654 -53.5609 1.64581 98.9358 -0.860832 20.3616 -10.7398 3.33675 -6.44857 -0.839276 0.292546 0.345621 -2.3421 -54.6821 -1.44024 81.0588 1.36276 17.2565 3.43709 -10.7212 -3.4747 1.48069 0.354021 -6.3425 3.79028 
